<svg viewBox="0 0 64 64" xmlns="http://www.w3.org/2000/svg"><ellipse cx="32" cy="49.4" fill="#d0d0d0" rx="30" ry="12.6"/><path d="m7.7 24.8v22.5c0 5.7 10.9 10.3 24.3 10.3s24.3-4.6 24.3-10.2v-22.6z" fill="#d3976e"/><g fill="#ffdd7d"><path d="m56.3 31.4c-.1 4-15.4 8.4-24.3 8.4s-24.2-4.4-24.3-8.4v6.1c12.5 9 36.1 9 48.6 0z"/><path d="m56.3 41c-.1 4-15.4 8.4-24.3 8.4s-24.2-4.4-24.3-8.4v6.1c12.5 9 36.1 9 48.6 0z"/></g><path d="m7.7 24.8v16.9c0 .9.8 1.7 1.9 1.7 1 0 1.9-.7 1.9-1.7v-3.9c0-1.2 1.1-2.2 2.5-2.2s2.5 1 2.5 2.2v4.8c0 1.4 1.3 2.6 2.9 2.6s2.9-1.1 2.9-2.6v-4.9c0-1.3 1.2-2.3 2.6-2.3s2.6 1 2.6 2.3v3.1c0 .7.6 1.3 1.5 1.3.8 0 1.5-.6 1.5-1.3v-2.5c0-.9.8-1.7 1.9-1.7 1 0 1.9.7 1.9 1.7v4.2c0 1.4 1.3 2.6 2.9 2.6s2.9-1.1 2.9-2.6v-4.7c0-1.2 1.1-2.2 2.5-2.2s2.5 1 2.5 2.2v3.5c0 .7.7 1.3 1.5 1.3s1.5-.6 1.5-1.3v-2.4c0-.6.6-1.1 1.3-1.1s1.3.5 1.3 1.1v3.7c0 1.4 1.3 2.6 2.9 2.6s2.9-1.1 2.9-2.6v-17.7l-48.8-.1" fill="#a80038"/><ellipse cx="32" cy="24.8" fill="#ff2c68" rx="24.3" ry="10.2"/><path d="m14.4 23.8c-.1-6.5 28.7-7.4 28.8-1.6.1 4.3-18.3 4.5-18.4 1.1-.1-2.4 11.4-2.5 11.4-.7s-9.3 2.1-7.1-.2c-3.7 2.8 8.1 2.9 8 .3-.1-3-13.9-2.6-13.9.5.1 4.6 21.4 4.1 21.3-1.1-.1-6.8-32-6.5-31.8 1.6.2 8.9 31.2 12.1 41.3.8-13.7 10.4-39.5 5.4-39.6-.7" fill="#ffa4a4"/><path d="m11.8 11.6v10.8c0 1.5 3.2 1.3 3.2 0v-10.8c0-1.5-3.2-1.5-3.2 0" fill="#42ade2"/><path d="m15 12.6-3.2 1.7v1.9l3.2-1.6zm-3.2 6.9v1.8l3.2-1.6v-1.9z" fill="#428bc1"/><path d="m15.1 9.2c0 2.5-3.3 2.5-3.3 0 0-.8 1.7-3.4 1.7-3.4s1.6 2.6 1.6 3.4" fill="#ff8b00"/><path d="m14.3 10c0 1.4-1.7 1.4-1.7 0 0-.4.8-1.7.8-1.7s.9 1.3.9 1.7" fill="#fff033"/><path d="m30.6 7.2v9.4c0 1.5 2.8 1.2 2.8 0v-9.4c0-1.5-2.8-1.5-2.8 0" fill="#42ade2"/><path d="m33.4 8-2.8 1.5v1.7l2.8-1.5zm-2.8 6v1.6l2.8-1.4v-1.6z" fill="#428bc1"/><path d="m33.4 5c0 2.3-2.9 2.3-2.9 0 0-.7 1.4-3 1.4-3s1.5 2.3 1.5 3" fill="#ff8b00"/><path d="m32.7 5.7c0 1.4-1.4 1.4-1.4 0 0-.4.7-1.5.7-1.5s.7 1.1.7 1.5" fill="#fff033"/><path d="m48.9 11.6v10.8c0 1.5 3.2 1.3 3.2 0v-10.8c0-1.5-3.2-1.5-3.2 0" fill="#42ade2"/><path d="m52.1 12.6-3.2 1.7v1.9l3.2-1.7zm-3.2 6.9v1.8l3.2-1.7v-1.8z" fill="#428bc1"/><path d="m52.2 9.2c0 2.5-3.3 2.5-3.3 0 0-.8 1.7-3.4 1.7-3.4s1.6 2.5 1.6 3.4" fill="#ff8b00"/><path d="m51.4 9.9c0 1.4-1.7 1.4-1.7 0 0-.4.8-1.7.8-1.7s.9 1.3.9 1.7" fill="#fff033"/><path d="m20 18.3v13.1c0 1.7 3.9 1.3 3.9 0v-13.1c0-1.6-3.9-1.6-3.9 0" fill="#9fe4ff"/><path d="m23.9 19.6-3.9 1.9v2.4l3.9-2zm-3.9 8.2v2.2l3.9-1.9v-2.2z" fill="#42ade2"/><path d="m24 15.4c0 2.7-4 2.7-4 0 0-1 2-4.2 2-4.2s2 3.2 2 4.2" fill="#ff8b00"/><path d="m23 16.3c0 1.5-2 1.5-2 0 0-.5 1-2.1 1-2.1s1 1.6 1 2.1" fill="#fff033"/><path d="m40 18.3v13.1c0 1.7 3.9 1.3 3.9 0v-13.1c0-1.7-3.9-1.7-3.9 0" fill="#9fe4ff"/><path d="m43.9 19.5-3.9 2v2.3l3.9-1.9zm-3.9 8.3v2.2l3.9-2v-2.2z" fill="#42ade2"/><path d="m44 15.3c0 2.7-4 2.7-4 0 0-1 2-4.2 2-4.2s2 3.3 2 4.2" fill="#ff8b00"/><path d="m43 16.3c0 1.5-2 1.5-2 0 0-.5 1-2.1 1-2.1s1 1.6 1 2.1" fill="#fff033"/></svg>