<svg viewBox="0 0 64 64" xmlns="http://www.w3.org/2000/svg"><path d="m2 61 8.6-3-6.5-3z" fill="#f7b600"/><path d="m26.9 36.4-12.1-12.2-2 5.6z" fill="#ffdd7d"/><path d="m12.8 29.8-2.2 6.3 26.8 12.5 1.3-.4-11.8-11.8z" fill="#f7b600"/><path d="m8.5 42.4 20 9.3 8.9-3.1-26.8-12.5z" fill="#ffdd7d"/><path d="m6.3 48.7 13.2 6.2 9-3.2-20-9.3z" fill="#f7b600"/><path d="m6.3 48.7-2.2 6.3 6.5 3 8.9-3.1z" fill="#ffdd7d"/><path d="m31.9 31.2c6.7 6.6 10.2 14 7.8 16.4-2.5 2.4-9.9-1-16.7-7.7-6.7-6.6-10.2-14-7.8-16.4 2.5-2.4 9.9 1.1 16.7 7.7" fill="#493816"/><path d="m23.5 14.5c-1.6-2.3.1-3.3 2.3-2.9-2.1-2.5-.8-4.3 2.5-3.6 1 .2-.4 1.9-1.3 1.9 2.7 2 1.2 4.2-1.7 3.7 2.6 3.5-1.8 2.6-3.8 2.8-.5 2.6 2.5 5.6 1.5 5.6-2.2 0-5.8-8.3.5-7.5" fill="#42ade2"/><path d="m44.5 19.3c-1.5.7-5.7-5.9-.5-6-3-2.7-2.6-4 1.4-4.1-4.6-4.6 2.7-6.2 3.4-3.8.2.7-2.2-.6-3 .7-.9 1.5 5.6 5.4-1.1 5.1 2.5 2.5 2.6 3.7-1.3 4.1.5.8 2.1 3.6 1.1 4" fill="#ff8736"/><path d="m46.2 34.9 1.5-1.3s1.4 2.1 2.4 2.9c.8-3.6.6-5.7 4.7-3.3-2.3-6.2 1.5-3.9 5.2-2.2-.2-1.6 0-1.4 1.6-1.9 1.4 5.3-2.4 3.7-5.4 2 1.8 4.8-.1 4.5-3.9 2.9-.1 2-.7 4.3-1.9 4.5-1.4.4-4.2-3.6-4.2-3.6" fill="#ed4c5c"/><path d="m35 20.1c-1.8 2.4-4.7 3.7-6.8 5.8-2.2 2.2-3.5 8.2-3.5 8.2s.8-6.3 2.9-8.7c1.9-2.2 4.7-3.8 6.2-6.3 2.6-4.6.2-10.6-3.2-14.1.7-.6 1.7-1.4 2.2-2 3.3 4.1 6.1 12 2.2 17.1" fill="#c28fef"/><path d="m38.1 25.2c-2.6 1.9-4.5 4.7-6.3 7.3-1.6 2.3-6.7 5.2-6.7 5.2s4.8-3.3 6.3-5.7c1.8-3 3.6-6.1 6.4-8.3 5.6-4.3 13.7-3.9 20-1.6-.4.9-1.1 2.8-1.1 2.8s-13.3-3.6-18.6.3" fill="#ff8736"/><path d="m49.2 24.7c-1.7 2.2-2.5 4.9-3.8 7.4-1.2 2.3-2.8 4.5-5.1 5.7-2.6 1.3-8.3.9-8.3.9s5.7-.1 8.1-1.7 3.7-4.4 4.6-7c1.8-5 4-10.4 9.2-12.6.3.9 1 2.8 1 2.8s-2.9.8-5.7 4.5m-45.99-10.375 2.828-2.829 2.829 2.828-2.828 2.83z" fill="#42ade2"/><path d="m7.173 23.197 2.827-2.828 2.828 2.828-2.828 2.828z" fill="#ff8736"/><path d="m14.358 9.822 2.828-2.828 2.828 2.828-2.828 2.828z" fill="#ed4c5c"/><path d="m45.205 43.696 2.828-2.829 2.828 2.829-2.828 2.828z" fill="#c28fef"/><path d="m38.903 53.39 2.828-2.828 2.829 2.829-2.829 2.828z" fill="#ed4c5c"/><path d="m51.279 55.607 2.828-2.829 2.828 2.829-2.828 2.828z" fill="#ff8736"/><path d="m54.078 42.731 2.828-2.828 2.828 2.828-2.828 2.829zm-4.722-29.908 2.828-2.829 2.829 2.829-2.828 2.828z" fill="#42ade2"/><path d="m19.044 29.792 2.829-2.828 2.828 2.828-2.828 2.829z" fill="#ed4c5c"/></svg>