<svg viewBox="0 0 64 64" xmlns="http://www.w3.org/2000/svg"><g transform="matrix(0 1 -1 0 64 0)"><path d="m62.3 47.1c-.1-24.4-20.8-45-45.2-45.1l-14.8 60z" fill="#f6da77"/><path d="m54.5 49 2.1-.4c-1-19-14.6-38.9-41-40.9l-.3 2c20.2 2.6 36.7 19 39.2 39.3" fill="#860d16"/><path d="m56.5 48.6 5.7-1.4c.1-24.4-20.7-45.2-45.3-45.2l-1.4 5.7c23.5 2.2 38.8 17.6 41 40.9z" fill="#c98e52"/><path d="m13.5 41.7c-1.7 0-3.2-.6-4.4-1.8-.5-.5-.5-1.3 0-1.7.5-.5 1.3-.5 1.7 0 1.4 1.4 3.9 1.4 5.3 0 .7-.7 1.1-1.6 1.1-2.6s-.4-1.9-1.1-2.6c-.5-.5-.5-1.3 0-1.7.5-.5 1.3-.5 1.7 0 1.2 1.2 1.8 2.7 1.8 4.4s-.6 3.2-1.8 4.4c-1.1.9-2.7 1.6-4.3 1.6m25.1-19.8v.5c-.1.3-.2.5-.5.7s-.6.2-.8.1c-.8-.2-1.6 0-2.3.4s-1.2 1.1-1.4 1.9c-.4 1.6.7 3.3 2.3 3.7.6.1 1 .8.8 1.3-.1.6-.7 1-1.3.8-2-.5-3.5-2-4-4-.2-.8-.2-1.6 0-2.3.3-1.4 1.2-2.5 2.4-3.3s2.6-1 4-.7c.3.2.7.5.8.9m5.3 29h-.5c-.3-.1-.5-.2-.6-.5-.1-.2-.2-.5-.1-.8.2-.7.1-1.5-.3-2.2s-1-1.2-1.8-1.4c-1.5-.4-3.2.6-3.6 2-.1.5-.8.9-1.3.7-.6-.2-.9-.7-.7-1.3.5-1.8 2-3.3 3.9-3.6.7-.1 1.5-.1 2.2.1 1.3.3 2.4 1.2 3 2.3.7 1.2.8 2.5.5 3.8 0 .5-.3.8-.7.9" fill="#83bf4f"/><path d="m37.1 36.2c1.4 4.1-.8 8.5-5 9.9s-8.7-.8-10-4.9c-1.4-4.1.8-8.5 5-9.9 4.1-1.4 8.6.8 10 4.9m12.5.8c.8 2.5-.5 5.1-3 6-2.5.8-5.2-.5-6-3s.5-5.1 3-6c2.4-.8 5.1.5 6 3m-20.6-18c1.1 3.3-.7 7-4.1 8.1s-7.1-.7-8.2-4 .7-7 4.1-8.1 7.1.7 8.2 4m5.4 35-9.7 2.4c-.9-2.6.9-5.7 3.5-6.4 3.2-.8 5.3 1.5 6.2 4m-14.8-7c1.2 3.4-.7 7.2-4.2 8.3-3.5 1.2-7.3-.7-8.5-4.2-1.2-3.4.7-7.2 4.2-8.3s7.3.8 8.5 4.2" fill="#b21725"/><path d="m15.5 7.7c5.3.1 10.6 1.1 15.6 3.1 5 1.9 9.7 4.9 13.5 8.8 3.8 3.8 6.8 8.5 8.8 13.5s3 10.3 3.1 15.6c-.9-5.2-2.3-10.3-4.5-15s-5.1-9.1-8.8-12.7c-3.6-3.7-8-6.6-12.7-8.7-4.7-2.3-9.8-3.7-15-4.6" fill="#e0a763"/><path d="m16.794 13.436 1.98-1.98 1.98 1.98-1.98 1.98zm12.926 5.608 1.98-1.98 1.98 1.98-1.98 1.98zm-16.812 7.404 1.98-1.98 1.98 1.98-1.98 1.98zm6.84 5.687 1.98-1.98 1.98 1.98-1.98 1.98zm17.797.255 1.98-1.98 1.98 1.98-1.98 1.98zm11.479 14.151 1.98-1.98 1.98 1.98-1.98 1.98zm-29.407-1.889 1.98-1.98 1.98 1.98-1.98 1.98zm1.417 7.251 1.98-1.98 1.98 1.98-1.98 1.98zm-16.696 6.338 1.98-1.98 1.98 1.98-1.98 1.98zm9.632-40.913 1.485-1.485 1.485 1.485-1.485 1.485zm12.582 10.565 1.485-1.485 1.485 1.485-1.485 1.485zm13.523.062 1.485-1.485 1.485 1.485-1.485 1.485zm-26.639 8.209 1.485-1.485 1.485 1.485-1.485 1.485zm-6.076 5.936 1.485-1.485 1.485 1.484-1.485 1.485zm-2.33 12.385 1.485-1.485 1.485 1.485-1.485 1.485zm12.846.801 1.485-1.485 1.485 1.486-1.485 1.484zm12.902-6.94 1.485-1.485 1.485 1.485-1.485 1.485zm6.264 2.55 1.485-1.485 1.485 1.485-1.485 1.484zm8.334-5.726 1.485-1.484 1.485 1.485-1.485 1.485z" fill="#ffab41"/></g></svg>