<svg viewBox="0 0 64 64" xmlns="http://www.w3.org/2000/svg" xmlns:xlink="http://www.w3.org/1999/xlink"><path id="a" d="m62 32c0 16.6-13.4 30-30 30s-30-13.4-30-30 13.4-30 30-30 30 13.4 30 30z" fill="#ffdd67"/><path id="b" d="m49 38c0-.8-.5-1.8-1.8-2.1-3.5-.7-8.6-1.3-15.2-1.3s-11.7.7-15.2 1.3c-1.3.3-1.8 1.3-1.8 2.1 0 7.3 5.6 14.6 17 14.6s17-7.3 17-14.6" fill="#664e27"/><path id="c" d="m28.5 26.9c-1.9-5.1-4.7-7.7-7.5-7.7s-5.6 2.6-7.5 7.7c-.2.5.8 1.4 1.3.9 1.8-1.9 4-2.7 6.2-2.7s4.4.8 6.2 2.7c.6.5 1.5-.4 1.3-.9" fill="#664e27"/><path id="d" d="m50.4 26.9c-1.9-5.1-4.7-7.7-7.5-7.7s-5.6 2.6-7.5 7.7c-.2.5.8 1.4 1.3.9 1.8-1.9 4-2.7 6.2-2.7 2.3 0 4.4.8 6.2 2.7.5.5 1.5-.4 1.3-.9" fill="#664e27"/><path d="m44.7 38.3c-2.2-.4-6.8-1-12.7-1s-10.5.6-12.7 1c-1.3.2-1.4.7-1.3 1.5.1.4.1 1 .3 1.6.1.6.3.9 1.3.8 1.9-.2 23-.2 24.9 0 1 .1 1.1-.2 1.3-.8.1-.6.2-1.1.3-1.6 0-.8-.1-1.3-1.4-1.5" fill="#fff"/><use xlink:href="#a"/><use xlink:href="#b"/><use xlink:href="#c"/><use xlink:href="#d"/><path d="m44.7 38.3c-2.2-.4-6.8-1-12.7-1s-10.5.6-12.7 1c-1.3.2-1.4.7-1.3 1.5.1.4.1 1 .3 1.6.1.6.3.8 1.3.8h24.9c1 0 1.1-.2 1.3-.8.1-.6.2-1.1.3-1.6 0-.8-.1-1.3-1.4-1.5" fill="#fff"/></svg>