<svg viewBox="0 0 64 64" xmlns="http://www.w3.org/2000/svg"><path d="m31.9 30.3v31.7s13.1-9.2 22.3-11.9c0 0 .4-19.6 6.1-29.4z" fill="#076170"/><path d="m40.1 57.2s.5-28.1 1.5-29.5c1-1.5 9.6-3 9.6-3s-3.5 26.3-2.7 28c.1-.1-3.5 1.4-8.4 4.5" fill="#b3690e"/><path d="m31.9 62s-9.2-7.8-23.5-11.9c0 0 1.1-16.1-4.1-28.4l27.6 8.6z" fill="#3baacf"/><path d="m14.2 52.7s8.4 3.4 9 4.5.6-28.3.6-28.3-11.5-3.2-12.5-3.2c0 0 3.5 11.9 2.9 27" fill="#e9c243"/><path d="m31.9 30.3v5.3l25.7-8.8c.7-2.2 1.6-4.3 2.6-6.1zm-25.8-3.1c-.5-1.9-1.1-3.7-1.9-5.5l27.6 8.6v5.3z" opacity=".3"/><path d="m2 18.9 28.5 6.3 31.5-7.6-30.9-1.7z" fill="#4fc7e8"/><path d="m2 18.9 2.3 6.3 26.2 7.4v-7.4z" fill="#3baacf"/><path d="m30.5 32.6s23.8-8.8 29.7-9.2c0 0 .4-3.5 1.8-5.7l-31.5 7.5z" fill="#076170"/><g fill="#f0ae11"><path d="m10.5 20.8 5.8 5.5 6.4-2.9 9.3-2.8 11.6 1.4 6.1 1.2 4.9-3.8z"/><path d="m22.7 23.4 9.3-2.8 11.6 1.4 11-2.6-23.2-2.2-20.9 3.6z"/></g><path d="m10.5 20.8v7l11.7 3.2.5-7.6z" fill="#f8d048"/><path d="m43.6 22 .2 6.7 10-3 .8-6.3z" fill="#c47116"/><path d="m37.3 17.3s0-7 6.8-13.1c0 0-4.1 1.5-6.1 1.1-2.4-.4-3.2-3.3-3.2-3.3s-5.8 12.6-4.1 14.2c1.7 1.7 6.6 1.1 6.6 1.1" fill="#ea9f07"/><path d="m28.4 21.4s-3.9-8-12.2-12.2c0 0 6.5-.6 8-1.4 1.9-.9 3-3.4 3-3.4s7.2 12.6 6.6 14.5-5.4 2.5-5.4 2.5" fill="#f8d048"/><path d="m32.6 20.5s-6.1 2.4-13.9 2.4c-16.4-.1-18.7-11.9-2.5-10.8 13.3 1 16.4 8.4 16.4 8.4" fill="#ea9f07"/><path d="m31.5 20.4s7.2.6 13.9-1.1c14-3.6 8.8-14.2-4.4-9.7-10.8 3.7-9.5 10.8-9.5 10.8" fill="#f0ae11"/><g fill="#824000"><path d="m32.6 20.5s-3.8 1.5-8.7 1.5c-10.2 0-11.7-7.4-1.6-6.7 8.3.6 10.3 5.2 10.3 5.2"/><path d="m32.6 20.5s5 .4 9.7-.8c9.8-2.5 6.1-9.9-3-6.8-7.6 2.6-6.7 7.6-6.7 7.6"/></g></svg>